<svg id="Grupo_2" data-name="Grupo 2" xmlns="http://www.w3.org/2000/svg" xmlns:xlink="http://www.w3.org/1999/xlink" width="214.403" height="47.77" viewBox="0 0 214.403 47.77">
  <defs>
    <clipPath id="clip-path">
      <rect id="Retângulo_1" data-name="Retângulo 1" width="214.403" height="47.77" fill="none"/>
    </clipPath>
  </defs>
  <g id="Grupo_1" data-name="Grupo 1" clip-path="url(#clip-path)">
    <path id="Caminho_4" data-name="Caminho 4" d="M101.741,45.858a1.99,1.99,0,0,1-1.157-.841A3.376,3.376,0,0,1,100,42.929l-.02-37.243a4.533,4.533,0,0,1,.583-2.425,1.958,1.958,0,0,1,.881-.817,1.033,1.033,0,0,0,.606-.958V1.442a.831.831,0,0,0-.831-.831H89.82a.833.833,0,0,0-.831.831v.044a1.032,1.032,0,0,0,.6.956,1.979,1.979,0,0,1,.883.817,4.533,4.533,0,0,1,.581,2.425V40.422c0,.316-.067,2.465-.067,2.783a3.033,3.033,0,0,1-3.279,3.3c-4.11,0-8-6.4-12.348-12.021-3.1-3.993-6.578-8.66-12.685-10.656h2.293a15.364,15.364,0,0,0,8.327-2.4c3.092-1.991,5.644-5.1,5.644-9.506,0-7.942-6.23-11.32-13.07-11.722L64.5.114C64.017.087,57.9-.01,54.647,0,52.8.008,47.266.074,47.266.074a.662.662,0,0,0-.742.661c0,.528.439.636.965.648.867.017,4.818.106,5.123.106,13.147,0,16.486,3.368,16.486,10.6S64.211,22.572,58.223,22.572l-8.7-.032-3.053.005c-2.86.007-6.878.025-8.844.072A10.137,10.137,0,0,0,28.96,27.4a.178.178,0,0,0,0,.193.167.167,0,0,0,.258.02c.946-.968,2.8-2.365,5.044-1.516a1.341,1.341,0,0,1,.7.581c.482.841.385,1.995.375,5.495.022.549.034,1.147.034,1.8v1.866c0,8.56-5.681,10.387-8.99,10.387-10.2,0-17.73-8.821-17.73-22.472,0-9,5.718-22.048,18.5-22.048,7.838,0,10.258,3.219,11.281,7.329l.489,2.388a.774.774,0,0,0,.673.665c.507.04.784-.36.784-.859V2.053a.814.814,0,0,0-1.226-.8c-2.67,1.154-2.889.742-6.7-.256A28.635,28.635,0,0,0,23.487.06C9.766.363,0,10.67,0,23.758s11.1,23.7,23.487,23.7c7.426,0,10.782-1.284,12.676-2.109s3.9-1.594,6.543.705c.787.685,1.477.35,1.477-.306V37.3c-.044-1.351-.05-2.805-.05-4.175V30.616c0-4.882.337-6.041,2.269-6.637a6.9,6.9,0,0,1,1.254-.241c1.889.008,4.515.069,4.515.069a10.237,10.237,0,0,1,5.051,1.3c3.143,2.4,5.294,6.577,7.056,9.387,5.026,8.054,9.087,13.272,19,13.272h5.708l0,0H101.6c.7,0,1.033-.3,1.033-1a1.162,1.162,0,0,0-.894-.911m97.123-.6v-.075a2.325,2.325,0,0,1-1.685.6,1.73,1.73,0,0,1-1.423-.524,2.143,2.143,0,0,1-.487-1.573V35.972h4.044V34.025h-4.044V31.254h-2.1v2.771h-2.321v1.947h2.321v7.863a3.947,3.947,0,0,0,1.011,2.846,3.791,3.791,0,0,0,2.883,1.048,4.1,4.1,0,0,0,2.921-1.011l.262-.225-.973-1.61ZM131.053,34.587h0a6.46,6.46,0,0,0-2.921-.636,6.886,6.886,0,0,0-3.52.936,4.911,4.911,0,0,0-1.048.9V34.062H121.5V47.655h2.1V40.465a5.428,5.428,0,0,1,.524-2.434,3.488,3.488,0,0,1,1.5-1.535,4.777,4.777,0,0,1,2.359-.562,4.111,4.111,0,0,1,2.7.973,4.138,4.138,0,0,1,.973,2.958v7.751h2.1V39.754a6.45,6.45,0,0,0-.711-3.183,4.826,4.826,0,0,0-1.985-1.985m82.489,2.659.075-.037a6.315,6.315,0,0,0-2.322-2.434,6.591,6.591,0,0,0-3.333-.861,6.259,6.259,0,0,0-3.332.9,6.583,6.583,0,0,0-2.322,2.434,7.248,7.248,0,0,0-.861,3.557,6.975,6.975,0,0,0,.9,3.557,6.526,6.526,0,0,0,2.471,2.471,7.114,7.114,0,0,0,3.595.9,6.374,6.374,0,0,0,2.883-.562,5.574,5.574,0,0,0,2.247-1.685l.225-.3-1.311-1.5-.337.412a4.231,4.231,0,0,1-1.61,1.2,5.507,5.507,0,0,1-2.1.412,6.183,6.183,0,0,1-2.546-.6,4.388,4.388,0,0,1-1.722-1.685,5.047,5.047,0,0,1-.6-1.835H214.4V40.8a7.248,7.248,0,0,0-.861-3.557m-9.923,2.471a4.149,4.149,0,0,1,.524-1.535A4.2,4.2,0,0,1,208,35.9a4.161,4.161,0,0,1,2.284.6,4.262,4.262,0,0,1,1.573,1.685,5.318,5.318,0,0,1,.524,1.535Zm-47.7,5.542v-.075a2.324,2.324,0,0,1-1.685.6,1.73,1.73,0,0,1-1.423-.524,2.143,2.143,0,0,1-.487-1.573V35.972h4.044V34.025h-4.044V31.254h-2.1v2.771H147.9v1.947h2.322v7.863a3.947,3.947,0,0,0,1.011,2.846,3.791,3.791,0,0,0,2.883,1.048,4.1,4.1,0,0,0,2.921-1.011l.262-.225-.974-1.61Zm-41.451,2.359H116.6v-17.9h-2.134Zm31-6.852-.15-.037a6.464,6.464,0,0,0-1.76-.562,14.462,14.462,0,0,0-1.835-.337,8.743,8.743,0,0,1-1.573-.412,2.2,2.2,0,0,1-1.011-.6,1.338,1.338,0,0,1-.337-.974,1.8,1.8,0,0,1,.711-1.348,4.059,4.059,0,0,1,2.434-.6,4.814,4.814,0,0,1,1.91.262,5.153,5.153,0,0,1,1.648.786l.412.3,1.011-1.76-.3-.225a6.817,6.817,0,0,0-2.1-.973,9.693,9.693,0,0,0-2.509-.375,8.154,8.154,0,0,0-2.846.524,4.076,4.076,0,0,0-1.8,1.423,3.471,3.471,0,0,0-.6,2.022,3.729,3.729,0,0,0,.524,1.985,3.546,3.546,0,0,0,1.385,1.161,8.1,8.1,0,0,0,1.76.6,14.423,14.423,0,0,0,1.835.337c.562.112,1.123.225,1.61.375a2.2,2.2,0,0,1,1.011.6,1.214,1.214,0,0,1,.337.9,1.655,1.655,0,0,1-.711,1.385,4.471,4.471,0,0,1-2.584.562,6.27,6.27,0,0,1-2.471-.412,5.14,5.14,0,0,1-1.8-1.011l-.412-.337-1.011,1.76.262.225A6.291,6.291,0,0,0,138.8,47.28a9.324,9.324,0,0,0,3.108.487,7.7,7.7,0,0,0,2.921-.487,4.04,4.04,0,0,0,1.872-1.385,3.424,3.424,0,0,0,.674-2.1,3.291,3.291,0,0,0-.524-1.91,3.185,3.185,0,0,0-1.385-1.123m40.889.412-.037.037a5.263,5.263,0,0,1-.524,2.4,3.763,3.763,0,0,1-1.423,1.535,4.573,4.573,0,0,1-5.017-.412,4.137,4.137,0,0,1-.974-2.958V34.025h-2.1v7.863A6.451,6.451,0,0,0,177,45.071a4.7,4.7,0,0,0,2.022,1.985,6.959,6.959,0,0,0,3.033.637,6.056,6.056,0,0,0,3.333-.936,5.592,5.592,0,0,0,1.011-.861V47.58h2.059V33.988h-2.1Zm-13.929,4.081v-.075a2.325,2.325,0,0,1-1.685.6,1.73,1.73,0,0,1-1.423-.524,2.143,2.143,0,0,1-.487-1.573V35.972h4.044V34.025h-4.044V31.254h-2.1v2.771h-2.322v1.947h2.322v7.863a3.947,3.947,0,0,0,1.011,2.846,3.791,3.791,0,0,0,2.883,1.048,4.1,4.1,0,0,0,2.921-1.011l.262-.225-.974-1.61Zm-12.544,2.359h2.1V34.025h-2.1Zm1.086-18.647a1.406,1.406,0,0,0-1.423,1.423,1.516,1.516,0,0,0,.412,1.011,1.447,1.447,0,0,0,1.011.412,1.609,1.609,0,0,0,1.048-.412,1.447,1.447,0,0,0,0-2.022,1.471,1.471,0,0,0-1.048-.412" transform="translate(0 0)" fill="#061723"/>
  </g>
</svg>
